<svg width="630" height="212" viewBox="0 0 630 212" fill="none" xmlns="http://www.w3.org/2000/svg">
<rect x="4.06229" y="4.06229" width="621.568" height="203.821" rx="101.91" fill="#010412"/>
<path d="M74.4194 110.19H82.6213L90.1818 84.1655H90.4927L98.0726 110.19H106.275L117.664 70.3856H108.471L101.882 98.1009H101.532L94.2827 70.3856H86.4112L79.1423 98.0426H78.8119L72.2232 70.3856H63.0301L74.4194 110.19ZM125.658 70.3856H117.242V110.19H125.658V70.3856ZM162.776 84.321C161.669 75.1279 154.711 69.8414 145.498 69.8414C134.983 69.8414 126.956 77.2658 126.956 90.2877C126.956 103.271 134.847 110.734 145.498 110.734C155.702 110.734 161.863 103.951 162.776 96.6238L154.264 96.5849C153.467 100.841 150.124 103.29 145.634 103.29C139.59 103.29 135.489 98.8006 135.489 90.2877C135.489 82.0081 139.531 77.2853 145.692 77.2853C150.299 77.2853 153.622 79.9479 154.264 84.321H162.776ZM163.885 110.19H172.301V98.8783L176.441 93.825L187.344 110.19H197.412L182.466 88.2081L197.237 70.3856H187.15L172.826 87.936H172.301V70.3856H163.885V110.19ZM196.694 110.19H223.593V103.251H205.11V93.7473H222.135V86.8087H205.11V77.3241H223.515V70.3856H196.694V110.19ZM239.391 110.19C251.518 110.19 258.865 102.688 258.865 90.2489C258.865 77.8489 251.518 70.3856 239.507 70.3856H225.28V110.19H239.391ZM233.696 102.979V77.5962H239.06C246.523 77.5962 250.469 81.4056 250.469 90.2489C250.469 99.131 246.523 102.979 239.041 102.979H233.696ZM256.894 77.3241H269.08V110.19H277.398V77.3241H289.584V70.3856H256.894V77.3241ZM290.042 110.19H316.941V103.251H298.458V93.7473H315.484V86.8087H298.458V77.3241H316.864V70.3856H290.042V110.19ZM318.628 70.3856V110.19H326.791V84.1849H327.122L337.423 109.996H342.981L353.282 84.2821H353.613V110.19H361.776V70.3856H351.397L340.435 97.1291H339.969L329.007 70.3856H318.628ZM363.784 110.19H372.199V97.2846H379.274C388.428 97.2846 393.753 91.8232 393.753 83.874C393.753 75.9636 388.525 70.3856 379.488 70.3856H363.784V110.19ZM372.199 90.5404V77.2658H377.874C382.733 77.2658 385.085 79.9091 385.085 83.874C385.085 87.8194 382.733 90.5404 377.913 90.5404H372.199ZM394.294 110.19H419.774V103.251H402.71V70.3856H394.294V110.19ZM428.298 110.19L431.252 101.113H445.615L448.569 110.19H457.587L443.866 70.3856H433.021L419.28 110.19H428.298ZM433.39 94.5441L438.288 79.4815H438.599L443.497 94.5441H433.39ZM451.019 77.3241H463.206V110.19H471.524V77.3241H483.71V70.3856H451.019V77.3241ZM484.168 110.19H511.067V103.251H492.584V93.7473H509.609V86.8087H492.584V77.3241H510.989V70.3856H484.168V110.19ZM534.347 81.8332H542.413C542.297 74.7392 536.466 69.8414 527.603 69.8414C518.877 69.8414 512.482 74.6614 512.521 81.8915C512.502 87.7611 516.641 91.1235 523.366 92.7366L527.7 93.825C532.034 94.8746 534.445 96.1184 534.464 98.8006C534.445 101.716 531.685 103.698 527.409 103.698C523.036 103.698 519.887 101.677 519.615 97.6927H511.472C511.685 106.303 517.846 110.754 527.506 110.754C537.224 110.754 542.938 106.108 542.957 98.82C542.938 92.1924 537.943 88.6746 531.024 87.1197L527.448 86.2645C523.988 85.4677 521.092 84.1849 521.151 81.3279C521.151 78.7624 523.424 76.8771 527.545 76.8771C531.568 76.8771 534.036 78.7041 534.347 81.8332Z" fill="white"/>
<path d="M556.746 80.2805C561.873 80.2805 566.019 76.1346 566.002 71.0245C565.984 65.9145 561.873 61.7686 556.746 61.7686C551.653 61.7686 547.507 65.9145 547.49 71.0245C547.472 76.1346 551.653 80.2805 556.746 80.2805ZM556.746 77.3617C553.248 77.3617 550.391 74.513 550.408 71.0333C550.417 67.536 553.266 64.6873 556.746 64.6873C560.252 64.6873 563.074 67.5185 563.083 71.0333C563.1 74.5306 560.26 77.3617 556.746 77.3617ZM551.872 71.0245C551.872 73.7505 554.081 75.968 556.816 75.968C559.209 75.968 561.146 74.2501 561.417 71.9799H558.814C558.63 72.8564 557.824 73.47 556.816 73.47C555.466 73.47 554.361 72.3656 554.361 71.0158C554.361 69.6572 555.466 68.5791 556.816 68.5791C557.824 68.5791 558.709 69.1926 558.884 70.0691H561.488C561.216 67.799 559.209 66.081 556.816 66.081C554.081 66.081 551.872 68.2986 551.872 71.0245Z" fill="url(#paint0_linear)"/>
<path d="M113.108 150.47H115.939V142.288H123.91V139.861H115.939V134.144H124.744V131.706H113.108V150.47ZM125.507 150.47H128.247V141.876C128.247 140.035 129.667 138.706 131.609 138.706C132.177 138.706 132.818 138.807 133.038 138.871V136.251C132.763 136.214 132.223 136.187 131.875 136.187C130.226 136.187 128.815 137.121 128.302 138.633H128.155V136.397H125.507V150.47ZM138.648 150.754C141.718 150.754 143.889 149.242 144.512 146.952L141.919 146.485C141.424 147.813 140.233 148.491 138.676 148.491C136.33 148.491 134.754 146.97 134.681 144.258H144.686V143.287C144.686 138.202 141.644 136.214 138.456 136.214C134.535 136.214 131.951 139.201 131.951 143.525C131.951 147.896 134.498 150.754 138.648 150.754ZM134.69 142.206C134.8 140.209 136.248 138.477 138.474 138.477C140.6 138.477 141.992 140.053 142.002 142.206H134.69ZM151.469 150.754C154.538 150.754 156.709 149.242 157.332 146.952L154.739 146.485C154.245 147.813 153.054 148.491 151.496 148.491C149.151 148.491 147.575 146.97 147.502 144.258H157.506V143.287C157.506 138.202 154.465 136.214 151.276 136.214C147.355 136.214 144.771 139.201 144.771 143.525C144.771 147.896 147.318 150.754 151.469 150.754ZM147.511 142.206C147.621 140.209 149.068 138.477 151.295 138.477C153.42 138.477 154.813 140.053 154.822 142.206H147.511ZM168.19 150.736C169.885 150.736 171.763 150.168 173.028 148.986L174.292 150.47H177.389L174.723 147.282C175.52 146.219 176.28 144.551 176.28 141.949H173.807C173.807 143.205 173.513 144.322 173.028 145.257L169.271 140.768L170.554 139.824C172.112 138.688 173.046 137.378 173.046 135.591C173.046 133.401 171.278 131.505 168.392 131.505C165.533 131.505 163.655 133.346 163.655 135.939C163.655 137.616 164.535 138.944 165.717 140.383C163.573 141.867 162.116 143.25 162.116 145.486C162.116 148.5 164.416 150.736 168.19 150.736ZM171.489 147.172C170.517 147.978 169.354 148.418 168.199 148.418C166.166 148.418 164.837 147.034 164.837 145.413C164.837 144.836 165.323 143.681 166.789 142.6L167.283 142.234L171.489 147.172ZM167.76 138.944C166.908 137.9 166.239 136.938 166.239 135.985C166.239 134.895 167.137 133.795 168.456 133.795C169.72 133.795 170.545 134.785 170.545 135.664C170.545 136.782 169.931 137.46 168.914 138.129L167.76 138.944ZM181.939 150.47H184.77V143.874H188.618C192.97 143.874 195.123 141.244 195.123 137.781C195.123 134.327 192.988 131.706 188.627 131.706H181.939V150.47ZM184.77 141.473V134.134H188.325C191.128 134.134 192.274 135.655 192.274 137.781C192.274 139.906 191.128 141.473 188.361 141.473H184.77ZM195.9 150.47H198.639V141.876C198.639 140.035 200.059 138.706 202.002 138.706C202.57 138.706 203.211 138.807 203.431 138.871V136.251C203.156 136.214 202.616 136.187 202.267 136.187C200.618 136.187 199.207 137.121 198.694 138.633H198.548V136.397H195.9V150.47ZM209.041 150.754C212.11 150.754 214.282 149.242 214.905 146.952L212.312 146.485C211.817 147.813 210.626 148.491 209.068 148.491C206.723 148.491 205.147 146.97 205.074 144.258H215.079V143.287C215.079 138.202 212.037 136.214 208.849 136.214C204.927 136.214 202.344 139.201 202.344 143.525C202.344 147.896 204.891 150.754 209.041 150.754ZM205.083 142.206C205.193 140.209 206.641 138.477 208.867 138.477C210.992 138.477 212.385 140.053 212.394 142.206H205.083ZM215.796 150.47H218.536V141.794C218.536 139.897 219.864 138.578 221.422 138.578C222.942 138.578 223.996 139.586 223.996 141.116V150.47H226.726V141.501C226.726 139.806 227.762 138.578 229.548 138.578C230.996 138.578 232.187 139.384 232.187 141.29V150.47H234.926V141.033C234.926 137.817 233.131 136.214 230.584 136.214C228.559 136.214 227.038 137.185 226.36 138.688H226.213C225.599 137.149 224.308 136.214 222.429 136.214C220.57 136.214 219.186 137.139 218.6 138.688H218.426V136.397H215.796V150.47ZM236.276 150.47H239.015V136.397H236.276V150.47ZM237.659 134.226C238.603 134.226 239.391 133.493 239.391 132.595C239.391 131.697 238.603 130.955 237.659 130.955C236.707 130.955 235.928 131.697 235.928 132.595C235.928 133.493 236.707 134.226 237.659 134.226ZM249.293 144.634C249.302 147.025 247.525 148.161 245.986 148.161C244.291 148.161 243.118 146.934 243.118 145.019V136.397H240.379V145.349C240.379 148.839 242.294 150.653 244.996 150.653C247.113 150.653 248.551 149.536 249.202 148.033H249.348V150.47H252.042V136.397H249.293V144.634ZM253.401 150.47H256.14V141.794C256.14 139.897 257.469 138.578 259.026 138.578C260.547 138.578 261.601 139.586 261.601 141.116V150.47H264.331V141.501C264.331 139.806 265.366 138.578 267.153 138.578C268.6 138.578 269.791 139.384 269.791 141.29V150.47H272.531V141.033C272.531 137.817 270.735 136.214 268.188 136.214C266.163 136.214 264.642 137.185 263.964 138.688H263.818C263.204 137.149 261.912 136.214 260.034 136.214C258.174 136.214 256.791 137.139 256.204 138.688H256.03V136.397H253.401V150.47ZM277.681 134.144H283.526V150.47H286.348V134.144H292.203V131.706H277.681V134.144ZM295.05 150.782C297.377 150.782 298.687 149.6 299.21 148.546H299.32V150.47H301.995V141.125C301.995 137.03 298.77 136.214 296.534 136.214C293.987 136.214 291.642 137.24 290.726 139.806L293.3 140.392C293.703 139.393 294.729 138.431 296.571 138.431C298.339 138.431 299.246 139.357 299.246 140.951V141.015C299.246 142.014 298.22 141.995 295.692 142.288C293.025 142.6 290.295 143.296 290.295 146.494C290.295 149.261 292.375 150.782 295.05 150.782ZM295.646 148.583C294.097 148.583 292.98 147.886 292.98 146.53C292.98 145.065 294.281 144.542 295.866 144.332C296.754 144.212 298.862 143.974 299.255 143.58V145.394C299.255 147.062 297.927 148.583 295.646 148.583ZM303.322 150.47H306.061V136.397H303.322V150.47ZM304.705 134.226C305.649 134.226 306.437 133.493 306.437 132.595C306.437 131.697 305.649 130.955 304.705 130.955C303.752 130.955 302.973 131.697 302.973 132.595C302.973 133.493 303.752 134.226 304.705 134.226ZM310.164 131.706H307.424V150.47H310.164V131.706ZM314.578 150.47H317.363L320.222 140.31H320.433L323.291 150.47H326.086L330.218 136.397H327.387L324.647 146.686H324.51L321.761 136.397H318.93L316.163 146.732H316.026L313.268 136.397H310.437L314.578 150.47ZM330.495 150.47H333.235V136.397H330.495V150.47ZM331.879 134.226C332.822 134.226 333.61 133.493 333.61 132.595C333.61 131.697 332.822 130.955 331.879 130.955C330.926 130.955 330.147 131.697 330.147 132.595C330.147 133.493 330.926 134.226 331.879 134.226ZM337.338 142.114C337.338 139.87 338.712 138.587 340.617 138.587C342.477 138.587 343.604 139.806 343.604 141.849V150.47H346.344V141.519C346.344 138.037 344.429 136.214 341.552 136.214C339.436 136.214 338.052 137.194 337.402 138.688H337.228V136.397H334.598V150.47H337.338V142.114ZM352.964 150.745C355.529 150.745 356.537 149.178 357.032 148.28H357.261V150.47H359.936V131.706H357.197V138.679H357.032C356.537 137.808 355.602 136.214 352.982 136.214C349.583 136.214 347.082 138.899 347.082 143.461C347.082 148.015 349.546 150.745 352.964 150.745ZM353.568 148.409C351.122 148.409 349.849 146.256 349.849 143.434C349.849 140.639 351.095 138.541 353.568 138.541C355.96 138.541 357.242 140.493 357.242 143.434C357.242 146.393 355.932 148.409 353.568 148.409ZM381.834 137.808C381.193 133.795 378.05 131.45 374.083 131.45C369.227 131.45 365.645 135.087 365.645 141.088C365.645 147.089 369.209 150.727 374.083 150.727C378.206 150.727 381.22 148.143 381.834 144.432L378.976 144.423C378.49 146.824 376.474 148.143 374.101 148.143C370.886 148.143 368.458 145.678 368.458 141.088C368.458 136.535 370.876 134.034 374.111 134.034C376.502 134.034 378.508 135.38 378.976 137.808H381.834ZM393.134 136.636H395.864C395.781 133.63 393.124 131.45 389.313 131.45C385.548 131.45 382.662 133.603 382.662 136.837C382.662 139.448 384.531 140.978 387.545 141.794L389.762 142.398C391.768 142.93 393.317 143.589 393.317 145.257C393.317 147.089 391.567 148.299 389.157 148.299C386.977 148.299 385.163 147.328 384.998 145.284H382.158C382.341 148.684 384.97 150.782 389.176 150.782C393.583 150.782 396.12 148.464 396.12 145.284C396.12 141.904 393.106 140.594 390.724 140.007L388.892 139.531C387.426 139.155 385.474 138.468 385.483 136.672C385.483 135.078 386.94 133.896 389.249 133.896C391.402 133.896 392.932 134.904 393.134 136.636ZM407.415 136.636H410.146C410.063 133.63 407.406 131.45 403.595 131.45C399.829 131.45 396.943 133.603 396.943 136.837C396.943 139.448 398.812 140.978 401.827 141.794L404.044 142.398C406.05 142.93 407.599 143.589 407.599 145.257C407.599 147.089 405.849 148.299 403.439 148.299C401.258 148.299 399.444 147.328 399.28 145.284H396.439C396.623 148.684 399.252 150.782 403.457 150.782C407.864 150.782 410.402 148.464 410.402 145.284C410.402 141.904 407.388 140.594 405.006 140.007L403.173 139.531C401.707 139.155 399.756 138.468 399.765 136.672C399.765 135.078 401.222 133.896 403.531 133.896C405.684 133.896 407.214 134.904 407.415 136.636ZM415.044 134.144H420.889V150.47H423.711V134.144H429.565V131.706H415.044V134.144ZM434.257 150.754C437.326 150.754 439.497 149.242 440.12 146.952L437.528 146.485C437.033 147.813 435.842 148.491 434.284 148.491C431.939 148.491 430.363 146.97 430.29 144.258H440.295V143.287C440.295 138.202 437.253 136.214 434.064 136.214C430.143 136.214 427.559 139.201 427.559 143.525C427.559 147.896 430.106 150.754 434.257 150.754ZM430.299 142.206C430.409 140.209 431.856 138.477 434.083 138.477C436.208 138.477 437.601 140.053 437.61 142.206H430.299ZM441.012 150.47H443.751V141.794C443.751 139.897 445.08 138.578 446.637 138.578C448.158 138.578 449.212 139.586 449.212 141.116V150.47H451.942V141.501C451.942 139.806 452.978 138.578 454.764 138.578C456.212 138.578 457.403 139.384 457.403 141.29V150.47H460.142V141.033C460.142 137.817 458.346 136.214 455.799 136.214C453.775 136.214 452.254 137.185 451.576 138.688H451.429C450.815 137.149 449.523 136.214 447.645 136.214C445.785 136.214 444.402 137.139 443.816 138.688H443.641V136.397H441.012V150.47ZM461.492 155.747H464.231V148.28H464.396C464.891 149.178 465.899 150.745 468.464 150.745C471.872 150.745 474.346 148.015 474.346 143.461C474.346 138.899 471.836 136.214 468.437 136.214C465.825 136.214 464.882 137.808 464.396 138.679H464.167V136.397H461.492V155.747ZM464.176 143.434C464.176 140.493 465.459 138.541 467.85 138.541C470.333 138.541 471.579 140.639 471.579 143.434C471.579 146.256 470.296 148.409 467.85 148.409C465.496 148.409 464.176 146.393 464.176 143.434ZM477.833 131.706H475.093V150.47H477.833V131.706ZM483.291 150.782C485.619 150.782 486.929 149.6 487.451 148.546H487.561V150.47H490.236V141.125C490.236 137.03 487.011 136.214 484.776 136.214C482.229 136.214 479.883 137.24 478.967 139.806L481.541 140.392C481.945 139.393 482.971 138.431 484.812 138.431C486.581 138.431 487.488 139.357 487.488 140.951V141.015C487.488 142.014 486.461 141.995 483.933 142.288C481.267 142.6 478.536 143.296 478.536 146.494C478.536 149.261 480.616 150.782 483.291 150.782ZM483.887 148.583C482.339 148.583 481.221 147.886 481.221 146.53C481.221 145.065 482.522 144.542 484.107 144.332C484.996 144.212 487.103 143.974 487.497 143.58V145.394C487.497 147.062 486.168 148.583 483.887 148.583ZM498.132 136.397H495.246V133.026H492.507V136.397H490.445V138.596H492.507V146.906C492.497 149.462 494.449 150.699 496.611 150.653C497.481 150.644 498.068 150.479 498.389 150.36L497.894 148.097C497.711 148.134 497.372 148.216 496.932 148.216C496.043 148.216 495.246 147.923 495.246 146.338V138.596H498.132V136.397ZM504.754 150.754C507.824 150.754 509.995 149.242 510.618 146.952L508.025 146.485C507.53 147.813 506.339 148.491 504.782 148.491C502.436 148.491 500.86 146.97 500.787 144.258H510.792V143.287C510.792 138.202 507.75 136.214 504.562 136.214C500.641 136.214 498.057 139.201 498.057 143.525C498.057 147.896 500.604 150.754 504.754 150.754ZM500.796 142.206C500.906 140.209 502.354 138.477 504.58 138.477C506.706 138.477 508.098 140.053 508.108 142.206H500.796ZM522.055 139.833C521.487 137.643 519.774 136.214 516.732 136.214C513.553 136.214 511.299 137.891 511.299 140.383C511.299 142.38 512.508 143.709 515.147 144.295L517.529 144.817C518.885 145.12 519.517 145.724 519.517 146.604C519.517 147.694 518.353 148.546 516.558 148.546C514.918 148.546 513.864 147.841 513.534 146.457L510.886 146.86C511.345 149.352 513.415 150.754 516.576 150.754C519.975 150.754 522.33 148.949 522.33 146.402C522.33 144.414 521.065 143.186 518.482 142.591L516.246 142.078C514.698 141.711 514.029 141.189 514.038 140.236C514.029 139.155 515.202 138.386 516.759 138.386C518.463 138.386 519.251 139.329 519.572 140.273L522.055 139.833Z" fill="url(#paint1_linear)"/>
<rect x="4.06229" y="4.06229" width="621.568" height="203.821" rx="101.91" stroke="url(#paint2_linear)" stroke-width="8.12458"/>
<defs>
<linearGradient id="paint0_linear" x1="556.885" y1="56" x2="556.885" y2="85.8911" gradientUnits="userSpaceOnUse">
<stop stop-color="#6EA8F9"/>
<stop offset="0.4375" stop-color="#38ADED"/>
<stop offset="1" stop-color="#4FCCC8"/>
</linearGradient>
<linearGradient id="paint1_linear" x1="317.547" y1="125.47" x2="317.547" y2="156.47" gradientUnits="userSpaceOnUse">
<stop stop-color="#6EA8F9"/>
<stop offset="0.4375" stop-color="#38ADED"/>
<stop offset="1" stop-color="#4FCCC8"/>
</linearGradient>
<linearGradient id="paint2_linear" x1="314.847" y1="0" x2="314.847" y2="211.945" gradientUnits="userSpaceOnUse">
<stop stop-color="#6EA8F9"/>
<stop offset="0.4375" stop-color="#38ADED"/>
<stop offset="1" stop-color="#4FCCC8"/>
</linearGradient>
</defs>
</svg>
